<svg width="23" height="43" viewBox="0 0 23 43" fill="none" xmlns="http://www.w3.org/2000/svg">
<path d="M0 33.1114C0 31.4568 0.451865 29.919 1.33301 28.4785C2.21415 27.038 3.45678 25.8506 5.0609 24.8968V5.58669C5.0609 4.02943 5.67092 2.70575 6.91356 1.63513C8.15619 0.564508 9.69253 0 11.5 0C13.3301 0 14.8664 0.545043 16.109 1.61566C17.3517 2.70575 17.9843 4.00996 17.9843 5.56722V24.8773C19.5884 25.8311 20.8084 27.038 21.6896 28.459C22.5707 29.88 23 31.4373 23 33.0919C23 34.8828 22.4804 36.5568 21.4637 38.0751C20.447 39.5935 19.0462 40.8004 17.2839 41.6763C15.5216 42.5523 13.6012 43 11.5 43C9.42141 43 7.50098 42.5523 5.7387 41.6763C3.97643 40.8004 2.57564 39.5935 1.53634 38.0751C0.497051 36.5568 0 34.9022 0 33.1114ZM3.97643 33.1114C3.97643 34.9217 4.722 36.4789 6.19057 37.7637C7.65913 39.0484 9.44401 39.6908 11.5226 39.6908C13.6238 39.6908 15.4312 39.0484 16.945 37.7442C18.4587 36.44 19.2269 34.9022 19.2269 33.1308C19.2269 31.924 18.8654 30.7949 18.1424 29.7632C17.4195 28.7316 16.4253 27.9335 15.1601 27.3689L14.5275 27.0964C14.3016 27.0186 14.1886 26.8239 14.1886 26.5319V5.5867C14.1886 4.96379 13.94 4.43821 13.4204 4.00996C12.9008 3.60119 12.2682 3.38706 11.5 3.38706C10.777 3.38706 10.1444 3.6012 9.62473 4.00996C9.10509 4.41875 8.85656 4.94433 8.85656 5.5867V26.493C8.85656 26.785 8.7436 26.9796 8.54026 27.0575L7.93024 27.33C6.68761 27.8945 5.7161 28.6926 5.01571 29.7243C4.31531 30.756 3.97641 31.8655 3.97641 33.1114L3.97643 33.1114ZM5.7387 33.1114C5.7387 34.4934 6.28094 35.6809 7.38801 36.6541C8.49509 37.6274 9.8055 38.1141 11.3644 38.1141C12.9234 38.1141 14.2564 37.6274 15.4086 36.6541C16.5609 35.6809 17.1257 34.4934 17.1257 33.1308C17.1257 31.9045 16.6287 30.8144 15.6572 29.88C14.6857 28.9457 13.4882 28.3812 12.0874 28.2254V13.8986C12.0874 13.7818 12.0196 13.6455 11.8615 13.5287C11.7033 13.3925 11.5452 13.3341 11.3645 13.3341C11.1611 13.3341 11.0029 13.3925 10.89 13.4898C10.777 13.6066 10.7092 13.7234 10.7092 13.8986V28.1865C9.33104 28.3617 8.15619 28.9068 7.18468 29.8411C6.21317 30.7949 5.73871 31.8656 5.73871 33.1114L5.7387 33.1114Z" fill="#FF004C"/>
</svg>
