<svg width="32" height="36" viewBox="0 0 32 36" fill="none" xmlns="http://www.w3.org/2000/svg">
<path d="M0 22.0742C0 20.4182 0.518219 18.5175 1.55466 16.3722C2.59109 14.2269 3.92982 12.138 5.57085 10.1432C8.93927 6.2666 11.8758 3.33089 14.3374 1.35494L15.9568 0C16.4966 0.489285 17.1012 0.940929 17.749 1.35494C18.6343 2.14532 19.9946 3.4438 21.8084 5.28803C23.6221 7.13225 25.1984 8.76947 26.4939 10.275C28.027 12.1756 29.3441 14.2269 30.4022 16.391C31.4602 18.5551 32 20.4558 32 22.093C32 23.9749 31.5897 25.7627 30.7476 27.4752C29.9055 29.1877 28.7827 30.6743 27.3576 31.9164C25.9325 33.1584 24.2267 34.1558 22.2402 34.8897C20.2537 35.6236 18.1592 36 15.9568 36C13.7976 36 11.7463 35.6424 9.78138 34.9273C7.81646 34.2122 6.11066 33.2525 4.68556 32.0105C3.26046 30.7872 2.11606 29.3006 1.27395 27.5881C0.431849 25.8756 0 24.0314 0 22.0742ZM4.87989 16.5604C4.87989 18.1223 5.24696 19.3643 6.0027 20.3053C6.75843 21.2274 7.90283 21.6979 9.4359 21.6979C10.9906 21.6979 12.135 21.2274 12.9123 20.3053C13.668 19.3832 14.0567 18.1411 14.0783 16.5604C14.0566 14.9796 13.668 13.7376 12.9123 12.7967C12.1565 11.8745 10.9906 11.4041 9.4359 11.4041C7.90283 11.4041 6.75843 11.8745 6.0027 12.7967C5.24696 13.7376 4.87989 14.9796 4.87989 16.5604ZM8.26991 16.5604C8.26991 16.2781 8.26991 16.0523 8.26991 15.9017C8.26991 15.7512 8.29149 15.5442 8.31309 15.2807C8.33467 15.0173 8.35628 14.8102 8.42105 14.6785C8.48583 14.5468 8.52903 14.3774 8.6154 14.2269C8.70176 14.0763 8.80974 13.9446 8.93927 13.8881C9.09042 13.8129 9.24157 13.7752 9.4359 13.7752C9.73819 13.7752 9.97571 13.8505 10.1485 14.001C10.3212 14.1516 10.4507 14.3962 10.5155 14.7161C10.5803 15.0549 10.6235 15.3183 10.6451 15.563C10.6668 15.8076 10.6668 16.1275 10.6668 16.5415C10.6668 16.9744 10.6668 17.2943 10.6451 17.5201C10.6234 17.7459 10.5803 18.0282 10.5155 18.3669C10.4507 18.6869 10.3212 18.9315 10.1485 19.082C9.97572 19.2326 9.73819 19.3079 9.4359 19.3079C9.24155 19.3079 9.09042 19.2702 8.93927 19.1949C8.78813 19.1197 8.68018 19.0067 8.6154 18.8562C8.52903 18.7057 8.46425 18.5363 8.42105 18.4046C8.37787 18.254 8.33468 18.047 8.31309 17.8024C8.29151 17.5389 8.26991 17.3319 8.26991 17.2002C8.26991 17.0684 8.26991 16.8426 8.26991 16.5603V16.5604ZM9.54386 31.1448H12.3941L23.1687 10.9336H20.2537L9.54386 31.1448ZM18.8286 25.518C18.8503 27.0988 19.2605 28.3408 20.0162 29.2818C20.7719 30.2039 21.9379 30.6743 23.471 30.6743C25.0256 30.6743 26.17 30.2039 26.9258 29.2818C27.6815 28.3596 28.0486 27.0988 28.0702 25.518C28.0485 23.9373 27.6815 22.6952 26.9258 21.7731C26.17 20.851 25.0256 20.3806 23.471 20.3806C21.9379 20.3806 20.7719 20.851 20.0162 21.7731C19.2389 22.6952 18.8502 23.9373 18.8286 25.518ZM22.2186 25.518C22.2186 25.0852 22.2186 24.7653 22.2403 24.5395C22.262 24.3137 22.3051 24.0314 22.3699 23.6926C22.4347 23.3539 22.5642 23.1281 22.7369 22.9775C22.9097 22.827 23.1472 22.7517 23.4495 22.7517C23.6438 22.7517 23.8166 22.7893 23.9677 22.8646C24.1189 22.9399 24.2268 23.0528 24.3132 23.2222C24.3996 23.3916 24.4643 23.5421 24.5291 23.6738C24.5939 23.8056 24.6155 24.0126 24.6371 24.276L24.6588 24.8782V25.5181C24.6588 25.8192 24.6588 26.045 24.6588 26.1767L24.6371 26.7789L24.5291 27.3811L24.3132 27.8327L23.9677 28.1903L23.4495 28.3032C23.1472 28.3032 22.9097 28.2279 22.7369 28.0774C22.5642 27.9269 22.4347 27.6822 22.3699 27.3623C22.3051 27.0236 22.2619 26.7413 22.2403 26.5155C22.2186 26.2896 22.2186 25.9509 22.2186 25.5181V25.518Z" fill="#00CFB7"/>
</svg>
