<svg width="53" height="58" viewBox="0 0 53 58" fill="none" xmlns="http://www.w3.org/2000/svg">
<path d="M2.65 14.5912V2.91824L13.25 8.75472L2.65 14.5912ZM42.4 14.5912V2.91824L53 8.75472L42.4 14.5912ZM23.85 11.673V0L34.45 5.83648L23.85 11.673ZM18.55 58C16.2533 57.7568 14.0008 57.392 11.7925 56.9057C9.58417 56.4193 7.60815 55.823 5.86445 55.1168C4.11898 54.4125 2.70477 53.5983 1.6218 52.6742C0.5406 51.7501 0 50.7287 0 49.6101V23.3459C0 22.13 0.696067 20.9987 2.0882 19.952C3.47857 18.9073 5.36625 17.9832 7.75125 17.1797C10.1363 16.3781 12.9408 15.7458 16.165 15.2828C19.3892 14.8217 22.8342 14.5912 26.5 14.5912C30.1658 14.5912 33.6108 14.8217 36.835 15.2828C40.0592 15.7458 42.8638 16.3781 45.2488 17.1797C47.6338 17.9832 49.5214 18.9073 50.9118 19.952C52.3039 20.9987 53 22.13 53 23.3459V49.6101C53 50.7287 52.4594 51.7501 51.3782 52.6742C50.2952 53.5983 48.8819 54.4125 47.1382 55.1168C45.3927 55.823 43.4158 56.4193 41.2075 56.9057C38.9992 57.392 36.7467 57.7568 34.45 58V43.7736H18.55V58ZM26.5 26.2641C30.7842 26.2641 34.4836 25.984 37.5982 25.4237C40.7111 24.8653 43.195 24.2214 45.05 23.4918C45.05 23.2486 43.3717 22.6767 40.015 21.7759C36.6583 20.8771 32.1533 20.4277 26.5 20.4277C20.8467 20.4277 16.3417 20.8771 12.985 21.7759C9.62833 22.6767 7.95 23.2486 7.95 23.4918C9.805 24.2214 12.2898 24.8653 15.4045 25.4237C18.5173 25.984 22.2158 26.2641 26.5 26.2641Z" fill="#8A1538"/>
</svg>
