<svg width="40" height="32" viewBox="0 0 40 32" fill="none" xmlns="http://www.w3.org/2000/svg">
<path d="M6.16178 4.79021H10.5298C10.7177 2.8442 14.5458 2.72123 15.8769 4.12538C17.3384 5.66719 16.5449 8.04252 11.8927 8.00888H0V11.2275H11.8927C17.5039 11.2275 20.9038 8.7009 20.9038 5.5949C20.687 -1.46 6.64222 -1.97043 6.16178 4.79021ZM21.5831 23.9534L8.38604 23.9534V20.7347H21.5831C33.9185 20.8302 32.8311 31.7406 22.9502 32C18.5079 32 15.8521 29.5459 15.8521 27.172H20.2202C20.2202 27.8399 21.0676 28.7815 22.9502 28.7815C27.1556 28.6108 27.9428 23.9534 21.5831 23.9534ZM23.5226 11.1781H27.3913C27.1978 7.37124 35.8503 6.85982 35.6522 11.1781C35.6522 12.9427 33.9581 14.3967 29.3478 14.3967H0V17.6154H30C36.8274 17.6154 40 14.3818 40 11.1781C40 2.86648 23.5226 2.87356 23.5226 11.1781ZM5.72613 20.7347H0V23.9804H5.72613V20.7347Z" fill="#00CFB7"/>
</svg>
